<?xml version="1.0" encoding="utf-8"?>
<!-- Generator: Adobe Illustrator 22.1.0, SVG Export Plug-In . SVG Version: 6.00 Build 0)  -->
<svg version="1.1" id="Layer_1" xmlns="http://www.w3.org/2000/svg" xmlns:xlink="http://www.w3.org/1999/xlink" x="0px" y="0px"
	 viewBox="0 0 125 125" style="enable-background:new 0 0 125 125;" xml:space="preserve">
<style type="text/css">
	.st0{fill:#727272;}
</style>
<g>
	<path class="st0" d="M89.7,111.9l-10.5,10.5c-1.4,1.4-3.3,2.2-5.2,2.2c-1.9,0-3.9-0.8-5.2-2.2L46.1,99.8l-22.7,22.7
		c-1.4,1.4-3.3,2.2-5.2,2.2c-1.9,0-3.9-0.8-5.2-2.2L2.5,111.9c-1.4-1.4-2.2-3.3-2.2-5.2s0.8-3.9,2.2-5.2l22.7-22.7L2.5,56.1
		c-1.4-1.4-2.2-3.3-2.2-5.2c0-1.9,0.8-3.9,2.2-5.2L13,35.2c1.4-1.4,3.3-2.2,5.2-2.2c1.9,0,3.9,0.8,5.2,2.2l22.7,22.7l22.7-22.7
		c1.4-1.4,3.3-2.2,5.2-2.2c1.9,0,3.9,0.8,5.2,2.2l10.5,10.5c1.4,1.4,2.2,3.3,2.2,5.2c0,1.9-0.8,3.9-2.2,5.2L67.1,78.8l22.7,22.7
		c1.4,1.4,2.2,3.3,2.2,5.2S91.1,110.5,89.7,111.9z"/>
</g>
</svg>
