<?xml version="1.0" encoding="utf-8"?>
<!-- Generator: Adobe Illustrator 22.1.0, SVG Export Plug-In . SVG Version: 6.00 Build 0)  -->
<svg version="1.1" id="Layer_1" xmlns="http://www.w3.org/2000/svg" xmlns:xlink="http://www.w3.org/1999/xlink" x="0px" y="0px"
	 viewBox="0 0 394.1 51.5" style="enable-background:new 0 0 394.1 51.5;" xml:space="preserve">
<style type="text/css">
	.st0{fill:#C1C1C1;}
	.st1{fill:#5DC5C5;}
	.st2{fill:#F5811F;}
	.st3{fill:#FFFFFF;}
	.st4{enable-background:new    ;}
	.st5{fill:#AAAAAA;}
</style>
<g>
	<rect x="-123.5" y="87.9" class="st0" width="609" height="129.6"/>
</g>
<g>
	<g>
		<g>
			<path class="st1" d="M86.2,43.5c0,0-0.3-0.2-1.1-0.3c-0.8-0.3-1.8-0.5-3.3-0.8c-1.4-0.3-3.1-0.6-5.1-0.8c-2.1-0.2-4.3-0.3-6.8,0
				c-2.5,0.2-5,0.5-7.8,0.8c-2.7,0.3-5.6,0.4-8.5,0.6c-0.8,0.1-1.5,0.1-2.2,0.1c-0.3,0-0.8,0.1-1.1,0.1s-0.8,0.1-1.1,0.1
				c-1.5,0.1-3.1,0.1-4.6,0.2c-1.5,0.1-3.1,0-4.7,0c-1.5,0-3.1,0-4.7-0.1c-1.5-0.1-3.1-0.1-4.6-0.3c-0.8-0.1-1.5-0.3-2.2-0.4
				c-0.3-0.1-0.7-0.2-1-0.3c-0.3-0.2-0.7-0.3-0.9-0.5c-0.1-0.1-0.2-0.2-0.2-0.3c-0.1-0.2-0.1-0.2-0.1-0.2c0-0.1,0.3-0.3,0.5-0.5
				c0.5-0.3,1.3-0.7,2-0.9c0.7-0.3,1.5-0.3,2.1-0.5c0.3-0.1,0.8-0.2,1.1-0.2c0.3-0.1,0.8-0.1,1.1-0.2s0.8-0.2,1.1-0.3
				c0.4-0.1,0.8-0.2,1.3-0.3c0.3-0.1,0.5-0.3,0.8-0.5c0.2-0.2,0.3-0.3,0.4-0.8c0.1-0.3-0.1-0.8-0.2-0.9c-0.2-0.3-0.3-0.4-0.4-0.5
				c-0.2-0.2-0.3-0.3-0.3-0.3c-0.3-0.2-0.4-0.3-0.7-0.3c-0.8-0.4-1.5-0.7-2.2-0.9C32,34,31.3,34,30.7,33.8c-1.4-0.3-2.7-0.4-4.1-0.5
				s-2.7,0-3.9,0.1c-4.9,0.3-9,1.5-11.6,2.5c-1.4,0.5-2.4,1-3,1.4c-0.7,0.3-1,0.6-1,0.6l0,0C7,38,7,38.2,7,38.3
				c0,0.2,0.2,0.2,0.3,0.2c0,0,0.2,0,0.5-0.1c8.5-1.7,15-1.8,18.6-1.7l0,0c0.9,0.1,3,0.2,4.5,0.1c0.2,0,0.3,0,0.5-0.1h0.1
				c0.1,0,0.2,0,0.3-0.1c0.6-0.1,1.3-0.2,1.3-0.3c0.1-0.3-2.2-0.8-5.4-0.9c-1.8-0.1-4-0.1-5-0.1c-0.3,0-0.1-0.1,0-0.1
				c0.2-0.1,5.2-0.3,7.2-0.2c2,0.2,3.7,0.4,3.8,1.1c0,0.1,0,0.1,0,0.1c-0.1,0.4-0.5,0.9-2.4,1.1c-0.3,0.1-0.9,0.2-1.5,0.2
				c-1.2,0.2-2.2,0.5-3.1,0.8c-0.8,0.3-1.5,0.7-2,1.1c-0.2,0.2-0.3,0.3-0.3,0.5c-0.3,0.3-0.3,0.9-0.3,1.3c0.1,0.5,0.2,0.9,0.4,1.2
				c0.2,0.3,0.5,0.7,0.7,0.9c0.3,0.3,0.5,0.5,0.9,0.8c0.6,0.4,1.2,0.8,1.9,1.1c1.3,0.7,2.7,1.1,4,1.7c2.7,0.9,5.6,1.7,8.4,2.1
				c1.5,0.3,2.8,0.3,4.3,0.5s2.8,0.2,4.3,0.3c2.7,0.2,5.6,0.2,8.4-0.1c2.7-0.3,5.3-0.7,7.9-1.4c2.5-0.7,4.6-1.5,6.6-2.2
				c0.7-0.3,1.3-0.5,2-0.7c-0.2,0-0.3,0.1-0.4,0.1c-1.3,0.2-2.6,0.3-3.9,0.5s-2.7,0.3-4,0.4c-0.7,0.1-1.4,0.2-2.1,0.2
				C63,47,62.4,47,61.7,47.1c-0.3,0.1-0.7,0.1-0.9,0.1s-0.7,0.1-0.9,0.1c-0.7,0.1-1.3,0.1-2,0.1s-1.3,0-1.9,0c-0.6,0-1.2,0-1.7-0.1
				c-0.6-0.1-1.1-0.1-1.7-0.1c-0.5-0.1-1.1-0.1-1.5-0.1c-1-0.1-2-0.2-2.7-0.3c-0.9-0.1-1.5-0.2-2.1-0.3c-1.1-0.2-1.9-0.3-1.9-0.3
				c-0.1,0-0.1-0.1-0.1-0.1l0.1-0.1c0,0,0.7,0.1,1.9,0.2c0.6,0.1,1.3,0.1,2.1,0.2c0.9,0.1,1.7,0.1,2.7,0.1c0.5,0.1,1,0.1,1.5,0.1
				s1.1,0,1.7,0c0.6,0,1.1-0.1,1.7-0.1c0.6,0,1.2-0.1,1.9-0.1c0.6-0.1,1.3-0.1,1.9-0.2c0.3-0.1,0.7-0.1,0.9-0.1
				C61,46,61.4,46,61.6,46c0.7-0.1,1.3-0.2,2.1-0.2c0.7-0.1,1.3-0.2,2.1-0.3c1.3-0.2,2.7-0.3,4-0.6s2.7-0.4,3.9-0.6
				c0.7-0.1,1.3-0.2,1.9-0.3s1.2-0.1,1.7-0.2c1.1-0.1,2.3-0.2,3.3-0.2c0.5,0,1,0,1.5,0.1c0.2,0,0.3,0,0.5,0c1.4,0,2.5-0.1,3.3-0.1
				c0.7,0,1.1,0,1.1,0l0,0c0.1,0,0.2-0.1,0.2-0.2C86.3,43.7,86.2,43.6,86.2,43.5z"/>
		</g>
	</g>
	<g>
		<g>
			<g>
				<path class="st1" d="M48.4,15.8c-0.3,0.1-0.7,0.5-0.7,0.7c0,0.1,0.1,0.2,0.1,0.3c0,0.5-0.1,0.9-0.1,1.4c0,0.3,0.1,0.5,0.1,0.9
					c0,0.3-0.1,0.5-0.1,0.6c0,0.2,0.1,0.3,0.1,0.3c0.1,0.3,0,0.5,0.1,0.7S48,21,48,21.2c0,0.3-0.1,0.6-0.1,0.9
					c0,0.2,0.2,0.2,0.1,0.5c0,0.1,0,0.2,0,0.4s0,0.4,0,0.6c0,0.1,0,0.2,0,0.3c0.1,0.2,0.2,0.2,0.3,0.3c0.2,0.1,0.2,0.2,0.3,0.2h0.1
					c0.2,0,0.5,0.2,0.5,0.3c0,0.3-0.5,0.3-0.7,0.3s-0.3,0-0.5,0c-0.2-0.1-0.3-0.1-0.5-0.1c-0.3,0-0.5,0-0.9,0.1
					c-0.3,0-0.8,0.1-1.1,0.1S45.2,25,45,24.8c0-0.1,0-0.1,0-0.1c0-0.1,0.1-0.2,0.2-0.2c0.1-0.1,0.3-0.1,0.3-0.1
					c0.5,0,0.8-0.2,0.8-0.5c0-0.2,0.1-0.3,0.1-0.3c0-0.2-0.1-0.3-0.1-0.3c0-0.3,0.1-0.5,0.1-0.7c0-0.3-0.2-0.5-0.2-0.8
					c0-0.1,0.1-0.2,0.1-0.3s0-0.2,0-0.3c0-0.3,0.1-0.5,0.1-0.7c0-0.3-0.1-0.7-0.1-0.9c0-0.1,0-0.2,0-0.3c0-0.2-0.1-0.3-0.1-0.3
					c-0.1-0.3,0.1-0.7-0.1-1c-0.1-0.1,0-0.2,0-0.2s0-0.3-0.2-0.3s-0.3,0.3-0.4,0.3c-0.1,0.1-0.2,0.3-0.3,0.6s-0.3,0.5-0.4,0.7
					c-0.1,0.2-0.2,0.3-0.3,0.5c-0.2,0.3-0.3,0.5-0.4,0.8c-0.1,0.3-0.2,0.5-0.3,0.7c-0.2,0.3-0.4,0.7-0.5,0.9c-0.1,0.1-0.6,0.9-0.7,1
					c-0.2,0.1-0.4,0.1-0.5,0.1c-0.3,0-0.3-0.3-0.3-0.3c-0.1-0.2-0.2-0.3-0.3-0.4c-0.1-0.2-0.1-0.3-0.2-0.3c-0.1-0.2-0.3-0.3-0.3-0.5
					c-0.1-0.2-0.2-0.3-0.3-0.3c-0.1-0.1-1-1.3-1.1-1.4c-0.2-0.3-0.7-1.1-0.9-1.1c-0.1,0-0.3,0.3-0.3,0.3c0,0.3,0.1,0.6,0.1,0.9
					s0.1,0.5,0.1,0.8c0,0.2,0,0.3-0.1,0.5s0,1.1-0.1,1.1c-0.1,0.2-0.1,0.3-0.1,0.5c0,0.1-0.1,0.2-0.1,0.2c0,0.1,0.1,0.9,0.2,0.9
					c0.1,0.1,0.5,0.3,0.7,0.3c0.1,0,0.1,0,0.2,0c0.2,0,0.3,0.1,0.3,0.2c0.2,0.1,0.3,0,0.3,0.3S39.3,25,39.1,25c-0.3,0-0.5,0-0.8,0
					c-0.2,0-0.3-0.2-0.6-0.2S37,25,36.6,25c-0.2,0-0.4,0-0.4-0.2s0.2-0.3,0.3-0.3c0.2-0.1,0.3-0.1,0.5-0.1c0.2-0.1,0.2-0.1,0.3-0.2
					s0.2-0.2,0.3-0.3c0.1-0.1,0.1-0.3,0.1-0.3s0-0.1,0-0.2c0.1-0.3,0.1-0.5,0.1-0.9c0-0.3,0.1-0.7,0.1-1.1c0-0.3,0.1-0.5,0.1-0.8
					s-0.2-0.5-0.2-0.8c0-0.7,0.1-1.4,0.1-2.1c0-0.3-0.3-0.5-0.3-0.8c-0.1-0.2-0.2-0.3-0.3-0.3C36.9,16.3,36.4,16,36,16
					c-0.2,0-0.3,0.1-0.5,0.1s-0.3-0.2-0.3-0.3c0-0.2,0.2-0.3,0.3-0.4c0.2-0.1,1.7-0.1,2.1-0.1c0.3,0,0.4-0.1,0.6-0.1
					c0.1,0,0.2,0,0.3,0c0.1,0.1,0.6,0.8,0.7,0.9c0.2,0.2,0.3,0.3,0.3,0.5c0.2,0.3,0.3,0.5,0.4,0.7c0.2,0.2,0.3,0.3,0.4,0.5
					c0.3,0.3,0.3,0.7,0.5,0.9c0.1,0.3,0.3,0.3,0.4,0.5c0.1,0.2,0.2,0.3,0.3,0.4c0.2,0.2,0.3,0.3,0.3,0.5c0.2,0.2,0.3,0.3,0.3,0.4
					c0.1,0.2,0.2,0.5,0.3,0.5c0.3,0,0.5-0.7,0.6-0.9c0.1-0.2,0.3-0.3,0.3-0.6c0.1-0.2,0.1-0.3,0.2-0.3c0.2-0.3,0.3-0.5,0.4-0.8
					c0.2-0.3,0.2-0.5,0.3-0.8c0.2-0.3,0.4-0.5,0.5-0.9c0.2-0.3,0.3-0.7,0.5-0.9c0.1-0.2,0.2-0.3,0.3-0.4c0.2-0.2,0.1-0.1,0.3-0.1
					c0.1-0.1,0.2-0.1,0.3-0.1c0.1-0.1,0.7,0,0.9,0c0.4,0,0.8-0.1,1.2-0.1c0.3,0,0.5,0,0.7,0.1s0.3,0.2,0.3,0.3
					C49.3,15.7,48.6,15.8,48.4,15.8z"/>
			</g>
		</g>
		<g>
			<g>
				<path class="st1" d="M55,24.2c-0.2,0.2-0.5,0.4-0.8,0.4c-0.5,0-0.9-0.3-1.1-0.3c-0.1,0-0.3,0.2-0.5,0.3
					c-0.3,0.2-0.8,0.2-1.1,0.2s-0.4-0.1-0.7-0.2s-0.5-0.2-0.7-0.5C50,24,50,24,49.9,23.9c-0.2-0.2-0.2-0.4-0.2-0.5
					c0-0.4,0.2-0.8,0.7-0.9c0.1-0.1,0.2-0.1,0.3-0.1c0.3-0.1,0.9-0.1,1.3-0.1c0.9,0,0.9-0.3,0.9-0.9c0-0.4-0.2-0.8-0.7-0.8
					c-0.7,0-0.5,0.6-1.1,0.9c-0.2,0.1-0.3,0.2-0.5,0.2c-0.3,0-0.5-0.1-0.5-0.4s0.2-0.5,0.4-0.7c0.2-0.1,0.3-0.2,0.3-0.2
					c0.2-0.1,0.3-0.1,0.4-0.2c0.3-0.2,0.7-0.3,1.1-0.3c0.2,0,0.8,0,0.9,0.1c0.2,0.1,0.5,0.3,0.5,0.3c0.1,0.1,0.2,0.2,0.3,0.3
					c0.1,0.2,0.2,0.3,0.2,0.5s-0.1,0.3-0.1,0.3c0,0.1,0.1,0.2,0.1,0.3c0,0.1-0.1,0.2-0.1,0.3c0,0.2,0,0.3,0,0.4
					c0,0.2-0.1,0.3-0.1,0.5c0,0.3,0.2,0.8,0.5,0.8c0.2,0,0.3-0.2,0.5-0.2c0.1,0,0.3,0.1,0.3,0.2C55.3,24,55,24.1,55,24.2z
					 M51.5,22.9c0,0.1,0,0.1-0.1,0.1c-0.3,0.1-0.3,0.1-0.3,0.3c0,0.3,0.3,0.4,0.5,0.5c0.1,0.1,0.1,0.1,0.2,0.1c0.3,0,0.6,0,0.8-0.3
					c0.2-0.2,0.3-0.3,0.3-0.3c0-0.5-0.3-0.5-0.8-0.5C52,22.8,51.8,22.8,51.5,22.9z"/>
			</g>
		</g>
		<g>
			<g>
				<path class="st1" d="M62,24.7c-0.3,0-0.7-0.1-0.9-0.1s-0.3,0.1-0.4,0.1c-0.2,0-0.3-0.1-0.3-0.1c-0.2,0-0.3,0.1-0.5,0.1
					c-0.1,0-0.3-0.1-0.3-0.2c0-0.2,0.3-0.3,0.3-0.3c0.1,0,0.5-0.3,0.5-0.4c0-0.3-0.1-0.5-0.1-0.7s0.1-0.3,0.1-0.4
					c0-0.2-0.1-0.3-0.1-0.4s0.1-0.3,0.1-0.3c0-0.5-0.3-0.8-0.9-0.8c-0.2,0-0.7,0.1-0.8,0.2s-0.3,0.1-0.3,0.2
					c-0.1,0.1-0.2,0.5-0.2,0.6c0,0.4-0.1,0.9-0.1,1.3c0,0.2,0,0.3,0.1,0.3c0.1,0.3,0.9,0.4,0.9,0.8c0,0.2-0.3,0.2-0.3,0.2
					c-0.2,0-0.3-0.1-0.5-0.1s-0.3,0.1-0.5,0.1c-0.3,0-0.5-0.1-0.7-0.1s-0.4,0.1-0.6,0.1c-0.2,0-0.4-0.1-0.4-0.3
					c0-0.3,0.3-0.3,0.4-0.3c0.2-0.1,0.5-0.3,0.5-0.3c0.1-0.2,0-0.3,0.1-0.6c0.1-0.5,0.1-1.2,0.1-1.7c0-0.3-0.3-0.3-0.7-0.3
					c-0.1,0-0.2-0.1-0.2-0.2C56.2,21,56,21,56,20.9s0.1-0.2,0.1-0.2c0.1-0.1,0.3-0.1,0.5-0.1c0.3-0.1,0.8-0.3,1.1-0.3
					c0.5,0,0.5,0.5,0.8,0.5c0.2,0,0.3-0.2,0.3-0.2c0.1,0,0.3-0.2,0.3-0.2c0.2-0.1,0.8-0.2,0.9-0.2c0.5,0,0.9,0.3,1.3,0.5
					c0.2,0.2,0.3,0.5,0.3,0.8c0,0.2-0.1,0.3-0.1,0.5s0.1,0.3,0.1,0.5c0,0.3,0,0.8,0.1,1.1c0,0.2,0.1,0.3,0.2,0.3
					c0.3,0.2,0.7,0.1,0.7,0.4C62.4,24.6,62.1,24.7,62,24.7z"/>
			</g>
		</g>
		<g>
			<g>
				<path class="st1" d="M68.1,24.2c-0.3,0.2-0.6,0.4-0.9,0.4c-0.5,0-0.9-0.3-1.1-0.3c-0.1,0-0.3,0.2-0.5,0.3
					c-0.3,0.2-0.8,0.2-1.1,0.2c-0.3,0-0.4-0.1-0.7-0.2s-0.5-0.2-0.7-0.5C63,24,63,24,62.9,23.9c0.1,0,0.1-0.2,0.1-0.4
					c0-0.4,0.2-0.8,0.7-0.9c0.1-0.1,0.2-0.1,0.3-0.1c0.3-0.1,0.9-0.1,1.3-0.1c0.9,0,0.9-0.3,0.9-0.9c0-0.4-0.2-0.8-0.7-0.8
					c-0.7,0-0.5,0.6-1.1,0.9c-0.2,0.1-0.3,0.2-0.5,0.2c-0.3,0-0.5-0.1-0.5-0.4s0.2-0.5,0.4-0.7c0.2-0.1,0.3-0.2,0.3-0.2
					c0.2-0.1,0.3-0.1,0.4-0.2c0.3-0.2,0.7-0.3,1.1-0.3c0.2,0,0.8,0,0.9,0.1c0.2,0.1,0.5,0.3,0.5,0.3c0.1,0.1,0.2,0.2,0.3,0.3
					c0.1,0.2,0.2,0.3,0.2,0.5s-0.1,0.3-0.1,0.3c0,0.1,0.1,0.2,0.1,0.3c0,0.1-0.1,0.2-0.1,0.3c0,0.2,0,0.3,0,0.4
					c0,0.2-0.1,0.3-0.1,0.5c0,0.3,0.2,0.8,0.5,0.8c0.2,0,0.3-0.2,0.5-0.2c0.1,0,0.3,0.1,0.3,0.2C68.4,24,68.2,24.1,68.1,24.2z
					 M64.7,22.9C64.6,23,64.6,23,64.6,23c-0.3,0.1-0.3,0.1-0.3,0.3c0,0.3,0.3,0.4,0.5,0.5c0.1,0.1,0.1,0.1,0.2,0.1
					c0.3,0,0.6,0,0.8-0.3c0.2-0.2,0.3-0.3,0.3-0.3c0-0.5-0.3-0.5-0.8-0.5C65.1,22.8,64.9,22.8,64.7,22.9z"/>
			</g>
		</g>
		<g>
			<g>
				<path class="st1" d="M70.9,21.9c0,0.2,0.1,0.3,0.1,0.5s-0.1,0.3-0.1,0.6c0,0.2,0.2,0.7,0.3,0.8c0.2,0.1,0.3,0.2,0.4,0.2h0.1
					c0.2,0,0.3-0.2,0.5-0.2c0.1,0,0.2-0.3,0.3-0.3c0.1,0,0.3,0.1,0.3,0.2c0,0.3-0.3,0.5-0.5,0.6s-0.2,0.1-0.3,0.1
					c-0.2,0.1-0.3,0.2-0.3,0.2c-0.1,0.1-0.6,0.1-0.7,0.1c-0.4,0-0.9-0.1-0.9-0.5C70,24.1,70,24,70,24c-0.1-0.2-0.2-0.3-0.2-0.4
					s0.1-0.3,0.1-0.3c0.1-0.2,0-0.3,0-0.3c0-0.3-0.1-0.6-0.1-0.9c0-0.2,0.1-0.3,0.1-0.5c0-0.5-0.5-0.3-0.9-0.3
					c-0.2,0-0.4-0.1-0.4-0.3s0.5-0.3,0.7-0.3c0.2-0.1,0.5-0.4,0.7-0.5c0.3-0.3,0.5-0.7,0.5-1c0.1-0.2,0.2-0.3,0.3-0.3
					c0.3,0,0.2,0.3,0.2,0.3c0,0.3,0.1,0.3,0.1,0.5c0,0.3-0.2,0.5-0.2,0.7s0.2,0.3,0.3,0.3c0.1,0,0.2-0.1,0.3-0.1
					c0.2-0.1,1.1-0.1,1.3-0.1c0.2,0,0.3,0.1,0.3,0.2c0,0.3-0.3,0.4-0.5,0.5c-0.3,0.1-1.2,0-1.5,0.1c-0.2,0.1-0.2,0.2-0.2,0.3
					C70.8,21.5,70.9,21.7,70.9,21.9z"/>
			</g>
		</g>
		<g>
			<g>
				<path class="st1" d="M77.6,22c-0.1,0.1-0.2,0-0.3,0c-0.3,0-0.4,0-0.7,0c-0.2,0-0.3,0.1-0.3,0.1c-0.1,0-0.3-0.1-0.5-0.1
					s-0.3,0-0.4,0c-0.3,0-0.9-0.1-0.9,0.4c0,0.4,0.5,0.9,0.9,1c0.4,0.2,0.3,0.3,0.9,0.3h0.1c0.2,0,0.5,0,0.6-0.1s0.1-0.1,0.2-0.1
					c0.3-0.1,0.5-0.3,0.8-0.3c0.1,0,0.1,0.1,0.1,0.2s0.1,0.1,0.1,0.2c0,0.2-0.4,0.7-0.6,0.8c-0.2,0.1-0.2,0.1-0.3,0.1
					c-0.1,0-0.2,0.2-0.2,0.2c-0.1,0.1-0.9,0.3-1,0.3c-0.3,0-0.5-0.1-0.8-0.2c-0.2-0.1-0.3-0.1-0.5-0.1s-0.6-0.3-0.7-0.3
					c-0.3-0.3-0.5-0.8-0.5-1.1c0-0.8,0.4-1.6,1.1-2.1c0.2-0.2,0.4-0.3,0.6-0.4s0.3-0.1,0.5-0.2c0.3-0.2,0.8-0.2,1.1-0.2
					c0.7,0,1.4,0.5,1.4,1.1C78.3,21.4,77.9,21.9,77.6,22z M76.6,20.7c-0.2,0-0.3-0.1-0.3-0.1c-0.3,0-0.8,0.1-0.9,0.3
					c-0.1,0.1-0.2,0.2-0.2,0.3c0,0.3,0.5,0.3,0.8,0.3s1.3-0.1,1.3-0.3C77.2,21.2,76.7,20.8,76.6,20.7z"/>
			</g>
		</g>
		<g>
			<g>
				<path class="st1" d="M83.1,22c-0.1,0.1-0.2,0-0.3,0c-0.3,0-0.4,0-0.7,0c-0.2,0-0.3,0.1-0.3,0.1c-0.1,0-0.3-0.1-0.5-0.1
					s-0.3,0-0.4,0c-0.3,0-0.9-0.1-0.9,0.4c0,0.4,0.5,0.9,0.9,1c0.4,0.2,0.3,0.3,0.9,0.3H82c0.2,0,0.5,0,0.6-0.1s0.1-0.1,0.2-0.1
					c0.3-0.1,0.5-0.3,0.8-0.3c0.1,0,0.1,0.1,0.1,0.2s0.1,0.1,0.1,0.2c0,0.2-0.4,0.7-0.6,0.8c-0.2,0.1-0.2,0.1-0.3,0.1
					c-0.1,0-0.2,0.2-0.2,0.2c-0.1,0.1-0.9,0.3-1,0.3c-0.3,0-0.5-0.1-0.8-0.2c-0.2-0.1-0.3-0.1-0.5-0.1s-0.6-0.3-0.7-0.3
					c-0.3-0.3-0.5-0.8-0.5-1.1c0-0.8,0.4-1.6,1.1-2.1c0.2-0.2,0.4-0.3,0.6-0.4s0.3-0.1,0.5-0.2c0.3-0.2,0.8-0.2,1.1-0.2
					c0.7,0,1.4,0.5,1.4,1.1C83.7,21.4,83.3,21.9,83.1,22z M82.1,20.7c-0.2,0-0.3-0.1-0.3-0.1c-0.3,0-0.8,0.1-0.9,0.3
					c-0.1,0.1-0.2,0.2-0.2,0.3c0,0.3,0.5,0.3,0.8,0.3s1.3-0.1,1.3-0.3C82.6,21.2,82.1,20.8,82.1,20.7z"/>
			</g>
		</g>
		<g>
			<g>
				<path class="st1" d="M47,34.7c0,0.3,0.1,0.5,0.1,0.7s-0.2,0.3-0.3,0.3c-0.2,0-0.4-0.3-0.5-0.3c-0.4,0-1.1,0.3-1.5,0.3
					c-0.3,0.1-0.7,0.1-1,0.1s-0.8,0-1.1-0.1c-0.2-0.1-0.3-0.1-0.5-0.2c-0.2-0.1-0.6-0.2-0.8-0.3s-0.2-0.1-0.3-0.1
					c-0.2,0-0.7-0.5-0.9-0.6c-0.5-0.3-0.9-0.7-1.1-1.2c-0.1-0.2-0.2-0.2-0.3-0.3c-0.3-0.3-0.4-1.3-0.4-1.7c0-0.3-0.1-0.4-0.1-0.7
					c0-0.3,0.2-0.7,0.3-1.1c0.1-0.3,0.2-0.6,0.3-0.9c0.3-0.5,1.5-1.8,2.1-2c0.2,0,0.6-0.3,0.9-0.4c0.2-0.1,0.2,0,0.3-0.2
					c0.2-0.2,0.5-0.2,0.7-0.3c0.3-0.2,0.9-0.2,1.3-0.2c0.3,0,1.3,0.1,1.5,0.2s0.3,0.1,0.3,0.1c0.1,0,0.3,0.1,0.3,0.1
					c0.3,0,0.5-0.3,0.7-0.3s0.3,0.2,0.3,0.3c0,0.3-0.2,0.3-0.2,0.6c0,0.2,0.1,0.3,0.1,0.4c0,0.2-0.1,0.3-0.1,0.5
					c0,0.1,0,0.1-0.1,0.2c-0.2,0.3,0,0.9-0.4,0.9c-0.3,0-0.3-0.8-0.4-0.9c-0.1-0.2-0.2-0.3-0.3-0.5c-0.1-0.1-0.2-0.2-0.3-0.2
					c-0.2-0.2-0.4-0.3-0.7-0.4c-0.2-0.1-0.3-0.1-0.5-0.1c-0.3-0.1-0.4-0.2-0.7-0.2s-0.5,0.1-0.8,0.2c-0.1,0.1-0.2,0.1-0.3,0.1
					c-0.2,0.1-0.4,0.3-0.5,0.3c-0.3,0-0.3,0.2-0.3,0.2c-0.2,0-0.4,0.3-0.5,0.3c-0.3,0.2-0.2,0.3-0.3,0.5s-0.3,0.2-0.3,0.3
					c-0.2,0.3-0.4,0.9-0.5,1.3c-0.1,0.2,0,0.3,0,0.5c0,0.4-0.1,0.9-0.1,1.3c0,0.5,0.2,0.9,0.3,1.4c0.1,0.2,0.1,0.3,0.2,0.4
					c0.1,0.2,0.5,0.4,0.6,0.6c0.2,0.1,0.9,0.8,1,0.8s0.1,0,0.1,0c0.2,0,0.4,0.2,0.6,0.2c0.3,0.1,0.5,0.1,0.7,0.1s0.4,0.1,0.6,0.1
					c0.2,0,0.2-0.1,0.3-0.1c0.2-0.1,0.3-0.1,0.4-0.1c0.2-0.1,0.3-0.2,0.5-0.3c0.3-0.2,0.3-0.3,0.5-0.5c0.3-0.3,0.3-0.8,0.3-1.1
					c0.1-0.2,0.3-0.3,0.5-0.3s0.3,0.3,0.3,0.3c0,0.2-0.1,0.5-0.1,0.6c-0.1,0.2-0.1,0.5-0.1,0.7C47.1,34.2,47,34.5,47,34.7z"/>
			</g>
		</g>
		<g>
			<g>
				<path class="st1" d="M53.4,33.7c-0.1,0.3-0.2,0.7-0.5,0.8c-0.2,0.2-0.3,0.3-0.3,0.4c-0.2,0.2-0.4,0.3-0.7,0.5
					c-0.1,0.1-0.8,0.2-0.9,0.3c-0.2,0.1-0.5,0.1-0.7,0.1c-0.5,0-0.3-0.1-0.8-0.2c-0.2-0.1-0.3-0.1-0.5-0.1c-0.2-0.1-0.7-0.5-0.7-0.7
					C48,34.4,48,34,48,33.6c0-0.7,0.8-1.8,1.5-2.1c0.1-0.1,0.2-0.1,0.3-0.1s0.2-0.1,0.3-0.2c0.3-0.1,0.7-0.2,0.9-0.2
					s0.3,0.1,0.6,0.1s0.5,0.1,0.7,0.1c0.2,0.1,0.8,0.7,0.9,0.8c0.2,0.2,0.3,0.9,0.3,1.1C53.6,33.3,53.4,33.6,53.4,33.7z M50.3,31.6
					c-0.1,0.1-0.3,0.1-0.3,0.1c-0.1,0.1-0.4,0.5-0.4,0.7c-0.1,0.2-0.2,0.8-0.2,0.9c0,0.4,0.1,1,0.3,1.4c0.2,0.3,0.3,0.2,0.5,0.3
					s0.3,0.2,0.5,0.2c0.3,0,0.5-0.1,0.7-0.3c0.3-0.3,0.3-0.2,0.4-0.5c0.1-0.3,0.2-0.4,0.2-0.7s0.1-0.9-0.1-1.1
					c-0.1-0.2-0.2-0.3-0.3-0.5c0-0.5-0.5-0.6-0.9-0.6C50.6,31.5,50.4,31.5,50.3,31.6z"/>
			</g>
		</g>
		<g>
			<g>
				<path class="st1" d="M60.7,35.2c-0.1,0.1-0.3,0.2-0.3,0.2c-0.1,0-0.3,0.1-0.3,0.2c-0.2,0.1-0.3,0.1-0.3,0.2
					c-0.2,0.1-0.3,0.2-0.3,0.2c-0.1,0-0.1,0-0.1,0c-0.5,0-0.5-0.6-0.8-0.6c-0.1,0-0.2,0.1-0.2,0.1c-0.1,0.1-0.3,0.1-0.4,0.2
					c-0.1,0.1-0.2,0.1-0.3,0.2c-0.2,0.1-0.3,0.2-0.4,0.2c-0.2,0.1-0.6,0.1-0.8,0.1s-0.3,0-0.5-0.1s-0.3-0.2-0.4-0.3
					c-0.2-0.2-0.3-0.5-0.3-0.7c-0.1-0.2-0.2-0.3-0.2-0.5c0-0.3,0.1-0.5,0.1-0.7c0-0.5,0-0.9-0.1-1.4s-0.9-0.3-0.9-0.7
					c0-0.2,0.3-0.3,0.4-0.3h1.1c0.5,0,0.7,0.3,0.7,0.7c0,0.2-0.1,0.3-0.1,0.5c0,0.3,0.1,0.6,0.1,0.9c0,0.5-0.1,0.9,0.2,1.3
					c0.1,0.1,0.2,0.3,0.3,0.3c0.2,0,0.3,0.1,0.4,0.1c0.2,0,0.3-0.1,0.4-0.1c0.1,0,0.2,0.1,0.3,0.1s0.2-0.1,0.3-0.1
					c0.2-0.1,0.3-0.2,0.4-0.3c0.3-0.3,0.2-0.9,0.3-1.3c0-0.1,0-0.1,0-0.1c0-0.2-0.1-0.3-0.1-0.4c0-0.2,0.1-0.3,0.1-0.5
					s-0.1-0.2-0.1-0.3c-0.2-0.3-0.5-0.2-0.8-0.3c-0.1-0.1-0.3-0.2-0.3-0.3c0-0.3,0.8-0.3,0.9-0.3c0.3,0,0.4-0.1,0.6-0.1
					c0.6,0,0.7,0.3,0.7,0.8c0,0.2-0.1,0.3-0.1,0.5s0.1,0.3,0.1,0.5c0,0.3-0.2,0.5-0.2,0.9c0,0.3,0.1,0.9,0.5,0.9
					c0.2,0,0.3-0.1,0.5-0.1c0.1,0,0.2,0.1,0.2,0.2C60.8,34.9,60.7,35,60.7,35.2z"/>
			</g>
		</g>
		<g>
			<g>
				<path class="st1" d="M67.3,35.5c-0.3,0-0.7-0.1-0.9-0.1c-0.2,0-0.3,0.1-0.4,0.1c-0.2,0-0.3-0.1-0.3-0.1c-0.2,0-0.3,0.1-0.5,0.1
					c-0.1,0-0.3-0.1-0.3-0.2c0-0.2,0.3-0.3,0.3-0.3c0.1,0,0.5-0.3,0.5-0.4c0-0.3-0.1-0.5-0.1-0.7s0.1-0.3,0.1-0.4
					c0-0.2-0.1-0.3-0.1-0.4c0-0.2,0.1-0.3,0.1-0.3c0-0.5-0.3-0.8-0.9-0.8c-0.2,0-0.7,0.1-0.8,0.2c-0.1,0.1-0.3,0.1-0.3,0.2
					c-0.1,0.1-0.2,0.5-0.2,0.6c0,0.4-0.1,0.9-0.1,1.3c0,0.2,0,0.3,0.1,0.3c0.1,0.3,0.9,0.4,0.9,0.8c0,0.2-0.3,0.2-0.3,0.2
					c-0.2,0-0.3-0.1-0.5-0.1s-0.3,0.1-0.5,0.1c-0.3,0-0.5-0.1-0.7-0.1s-0.4,0.1-0.6,0.1c-0.2,0-0.4-0.1-0.4-0.3
					c0-0.3,0.3-0.3,0.4-0.3c0.2-0.1,0.5-0.3,0.5-0.3c0.1-0.2,0-0.3,0.1-0.6c0.1-0.5,0.1-1.2,0.1-1.7c0-0.3-0.3-0.3-0.7-0.3
					c-0.1,0-0.2-0.1-0.2-0.2c-0.1-0.1-0.3-0.1-0.3-0.2s0.1-0.2,0.1-0.2c0.1-0.1,0.3-0.1,0.5-0.1c0.3-0.1,0.8-0.3,1.1-0.3
					c0.5,0,0.5,0.5,0.8,0.5c0.2,0,0.3-0.2,0.3-0.2c0.1,0,0.3-0.2,0.3-0.2c0.2-0.1,0.8-0.2,0.9-0.2c0.5,0,0.9,0.3,1.3,0.5
					c0.2,0.2,0.3,0.5,0.3,0.8c0,0.3-0.1,0.3-0.1,0.5s0.1,0.3,0.1,0.5c0,0.3,0,0.8,0.1,1.1c0,0.2,0.1,0.3,0.2,0.3
					c0.3,0.2,0.7,0.1,0.7,0.4C67.8,35.5,67.5,35.5,67.3,35.5z"/>
			</g>
		</g>
		<g>
			<g>
				<path class="st1" d="M70.1,33c0,0.2,0.1,0.3,0.1,0.5s-0.1,0.3-0.1,0.6c0,0.2,0.2,0.7,0.3,0.8c0.2,0.1,0.3,0.2,0.4,0.2h0.1
					c0.2,0,0.3-0.2,0.5-0.2c0.1,0,0.2-0.3,0.3-0.3c0.1,0,0.3,0.1,0.3,0.2c0,0.3-0.3,0.5-0.5,0.6s-0.2,0.1-0.3,0.1
					c-0.2,0.1-0.3,0.2-0.3,0.2c-0.1,0.1-0.6,0.1-0.7,0.1c-0.4,0-0.9-0.1-0.9-0.5c-0.1-0.2-0.1-0.3-0.1-0.3c-0.1-0.2-0.2-0.3-0.2-0.4
					c0-0.2,0.1-0.3,0.1-0.3c0.1-0.2,0-0.3,0-0.3c0-0.3-0.1-0.6-0.1-0.9c0-0.2,0.1-0.3,0.1-0.5c0-0.5-0.5-0.3-0.9-0.3
					c-0.2,0-0.4-0.1-0.4-0.3s0.5-0.3,0.7-0.3c0.2-0.1,0.5-0.4,0.7-0.5c0.3-0.3,0.5-0.7,0.5-1c0.1-0.2,0.2-0.3,0.3-0.3
					c0.2,0,0.2,0.3,0.2,0.3c0,0.3,0.1,0.3,0.1,0.5s-0.2,0.5-0.2,0.7s0.2,0.3,0.3,0.3s0.2-0.1,0.3-0.1c0.2-0.1,1.1-0.1,1.3-0.1
					c0.2,0,0.3,0.1,0.3,0.2c0,0.3-0.3,0.4-0.5,0.5c-0.3,0.1-1.2,0-1.5,0.1c-0.2,0.1-0.2,0.2-0.2,0.3C70,32.4,70.1,32.7,70.1,33z"/>
			</g>
		</g>
		<g>
			<g>
				<path class="st1" d="M79.2,31.9c-0.3,0.2-0.3,0.5-0.5,0.7c-0.1,0.3-0.3,0.3-0.4,0.6c-0.1,0.2-0.2,0.3-0.2,0.5
					c-0.2,0.3-0.3,0.6-0.5,0.9c-0.1,0.3-0.3,0.4-0.3,0.6c-0.1,0.2-0.3,0.2-0.3,0.3c-0.2,0.2-0.8,0.7-0.9,0.9
					c-0.2,0.2-0.7,0.4-0.9,0.5c-0.3,0.2-0.7,0.3-1.1,0.3c-0.3,0-0.9-0.3-0.9-0.5c0-0.3,0.7-0.6,1-0.6c0.2,0,0.5,0.3,0.8,0.3
					s0.5-0.2,0.7-0.3C75.8,36,76,36,76,35.9c0.1-0.1,0.3-0.1,0.3-0.2c0.1-0.1,0.1-0.3,0.1-0.3c0-0.2-0.2-0.3-0.2-0.4
					c-0.1-0.2-0.8-0.8-0.9-0.9c-0.2-0.3-0.3-0.5-0.5-0.7c-0.1-0.1-0.2-0.3-0.3-0.5c-0.2-0.3-0.3-0.5-0.5-0.7c-0.4-0.3-1-0.2-1-0.5
					c0-0.2,0.3-0.3,0.4-0.3c0.3,0,0.7,0.1,0.9,0.1c0.5,0,0.9-0.1,1.4-0.1c0.2,0,0.5,0.1,0.5,0.3c0,0.2-0.7,0.3-0.7,0.6
					c0,0.2,0.2,0.3,0.3,0.5c0.1,0.1,0.1,0.3,0.2,0.3c0.1,0.2,0.3,0.2,0.3,0.3c0.2,0.3,0.3,0.6,0.5,0.9c0.2,0.2,0.3,0.3,0.4,0.3
					c0.3,0,0.4-0.5,0.5-0.7c0.2-0.3,0.5-0.9,0.5-1.1c0-0.1-0.1-0.2-0.1-0.3C78,32.1,77,32,77,31.6c0-0.2,0.3-0.2,0.3-0.2
					c0.4,0,0.9,0.1,1.3,0.1c0.3,0,0.8-0.1,1.1-0.1c0.2,0,0.4,0.1,0.4,0.3C80.2,31.8,79.6,31.8,79.2,31.9z"/>
			</g>
		</g>
	</g>
	<g>
		<g>
			<g>
				<path class="st2" d="M45.5,38h-1v0.9h0.9v0.3h-0.9v1.4h-0.4v-2.8h1.5L45.5,38z"/>
			</g>
		</g>
		<g>
			<g>
				<path class="st2" d="M49.7,40.6h-1.4v-2.8h0.3v2.5h1.1C49.7,40.3,49.7,40.6,49.7,40.6z"/>
			</g>
		</g>
		<g>
			<g>
				<path class="st2" d="M53.7,40.6c-0.8,0-1.1-0.6-1.1-1.5s0.5-1.5,1.1-1.5c0.9,0,1.1,0.7,1.1,1.5C54.8,40,54.4,40.6,53.7,40.6z
					 M53.6,38c-0.5,0-0.7,0.3-0.7,1.1c0,0.7,0.2,1.2,0.7,1.2c0.4,0,0.7-0.3,0.7-1.1C54.4,38.4,54.2,38,53.6,38z"/>
			</g>
		</g>
		<g>
			<g>
				<path class="st2" d="M59.2,40.6c-0.1-0.2-0.2-0.3-0.3-0.4c-0.3-0.3-0.3-0.5-0.5-0.7c-0.1-0.1-0.2-0.2-0.3-0.2v1.2h-0.3v-2.8h0.8
					c0.3,0,0.5,0.1,0.7,0.2c0.2,0.2,0.3,0.3,0.3,0.6c0,0.4-0.3,0.8-0.8,0.8c0.2,0.1,0.2,0.2,0.3,0.3s0.2,0.2,0.3,0.3
					c0.2,0.2,0.3,0.5,0.4,0.7L59.2,40.6L59.2,40.6z M58.9,38c-0.1,0-0.3,0-0.4,0h-0.3v1h0.3c0.3,0,0.3-0.1,0.5-0.2
					c0.1-0.1,0.2-0.3,0.2-0.3C59.1,38.4,59,38.2,58.9,38z"/>
			</g>
		</g>
		<g>
			<g>
				<path class="st2" d="M62.6,40.6v-2.8H63v2.8H62.6z"/>
			</g>
		</g>
		<g>
			<g>
				<path class="st2" d="M67.8,40.2c-0.2,0.3-0.5,0.3-0.9,0.3h-0.7v-2.8h0.7c0.5,0,0.8,0.1,1.1,0.5c0.2,0.3,0.3,0.5,0.3,0.9
					C68.1,39.6,67.9,39.9,67.8,40.2z M67.4,38.3C67.2,38,67.1,38,66.8,38h-0.3v2.1h0.3c0.3,0,0.5-0.1,0.7-0.3
					c0.1-0.2,0.2-0.4,0.2-0.7S67.6,38.4,67.4,38.3z"/>
			</g>
		</g>
		<g>
			<g>
				<path class="st2" d="M72.5,40.6l-0.3-0.8h-0.9l-0.2,0.8h-0.4l0.9-2.8h0.5l0.9,2.8H72.5z M71.9,38L71.9,38
					c-0.1,0.2-0.3,1.1-0.4,1.3h0.8C72.2,39.3,71.9,38.3,71.9,38z"/>
			</g>
		</g>
	</g>
	<g>
		<g>
			<g>
				<path class="st2" d="M15.4,29.5c-0.4-0.1-1.3-0.1-1.4,0.3c-0.5,1.5-2.1,1.3-2.5,2.1c-0.2,0.3-0.3,0.9-0.2,1.1
					c1.9-0.3,4-1.7,4.3-2.5C15.9,29.9,15.6,29.6,15.4,29.5z"/>
			</g>
		</g>
		<g>
			<g>
				<path class="st2" d="M11.2,26.3c1.1-0.3,0.5-0.9,1.2-1.4c-0.4-0.9-1.1-0.8-1.7-0.5C9.6,24.7,9.8,24,9.3,24
					c-0.4,0.1-2.2,1.7-2.8,1.8s-1.2,0-1.9,0.2s-1.7,0.9-2.1,0.9s-1.3,0.3-2,1.1c0.2,0.3,0.3,1.1,1.2,1.1s1-0.6,1.5-0.9
					c1.7-0.7,2-0.2,3.7-0.8C8.8,27,10.2,25.6,11.2,26.3z"/>
			</g>
		</g>
		<g>
			<g>
				<path class="st2" d="M24.9,10.7c0.3,0.1,1-0.1,1.4-0.3c0.3-0.3,0.5-1.1,0.8-1.5c0.4-0.7,1-1.1,1.1-1.7c0.1-0.7-1.3-1.5-1.3-0.8
					C26.8,8,26,8.3,25.2,9.3C24.3,10.3,24.7,10.6,24.9,10.7z"/>
			</g>
		</g>
		<g>
			<g>
				<path class="st2" d="M37.4,12c-1.4,0.6-2.1,0.6-2.4,0.5c-0.3-0.1-0.3-0.3-0.5-0.4c-0.3-0.1-0.9,0.5-1.4,0.5
					c-0.7,0.1-1.9,0.3-2.7,0.9c-0.3,0.2-0.5,0.7-0.5,0.7s-0.5-0.1-0.7-0.8s1.1-0.8,1.2-1.7c0.1-1.1,0.9-2,1.5-2.2
					C33,9,33,8.6,33.1,8s0.2-1.9-0.3-1.4c-0.8,0.8-0.3,0.9-1.1,1.5c-0.5,0.3-0.9,0.4-0.9,0.5c0.9-0.9,0.2-1.7,0.7-2.4
					c0.8-1.1,0.3-1.4,0.8-2.1C33.1,3.2,33.2,3,32,3.3c-0.9,0.2-0.9,1-1.1,1.5c-0.3,0.5-0.5,0.3-0.7,0.7C29.9,5.8,30,5.8,30,6.4
					c0,1.5-0.9,1.5-0.9,2.2c-0.1,0.8,1.3,0.5,1.3,0.7c-0.3,0.5-0.9,0.3-1.3,1.7c-0.2,0.5-1.1,1.5-2,1.2c-0.4-0.1,0-0.5-0.3-0.8
					s-1.7,0.1-2.3-0.5c-0.2-0.2-0.5-0.8-0.6-0.9c-0.7-1.7,0-1.5,0.3-3.3c0.1-0.9-0.9-1.4-0.5-2.7c0.2-1-1.7,0.1-2,0.5S22,5.6,22,6
					c-0.1,0.4-0.5,1.5-0.5,1.8c0,0.7,0.3,0.7,0.3,1.3c0.1,0.5,0.3,1.1-0.3,1.3c-0.6,0.3-1.7-0.2-2.1,0c-0.3,0.2-0.3-0.5-0.3-0.8
					c-0.1-1.3-0.5-1.9-0.7-2.7c-0.1-0.7,0.2-1.4,0.2-1.9c-0.1-0.5-0.5-0.7-0.7-0.9c-0.2-0.3-0.3-0.7-0.3-0.9
					c-0.2-0.2-0.5-0.3-0.8-0.5c-0.2-0.2-0.2-0.5-0.4-0.9C16.5,1.5,16,1.1,15.9,1S15,1.5,15.1,2.1C15.4,3,16,3.5,16.8,4.5
					c0.3,0.3,0.5,1.4,0.6,2.5s-0.2,1.9-0.1,2.4c0.2,0.5,1.3,1.3,0.9,1.4C18,11,17,11.4,16.9,11.4c-0.2,0.1-0.3-0.4-0.5-0.7
					c-0.3-0.3-0.9-0.3-1.2-0.7c-0.5-0.5-0.9-1.2-1.1-1.5c-0.3-0.3-0.1-0.8-0.3-1C13.4,7.2,13.2,7,12.4,7c-0.9,0-1.5,0.5-1,0.8
					c0.9,0.3,0.5,0.9,1.3,1.5c0.3,0.3,0.3,0.8,0.5,0.9c0.2,0.2,0.7,0.5,0.9,0.7c0.2,0.3,0.3,0.7,0.5,1.1c0.2,0.3,0.5,0.2,0.4,0.5
					s-0.3,0.5-0.5,0.9c-0.3,0.3-0.9-0.5-1.7-0.8s-0.9-0.5-1.1-0.7c-0.3-0.2-0.5-0.2-1.1-0.4c-0.5-0.2-0.7-0.3-1-0.9
					c-0.8-1.5-2-1.1-2.1-1.1c-0.5-0.4-1-0.7-1.6-1c-0.5-0.4-1.5,0-1.7,0.3c-0.3,0.4,1.2,1.4,2.4,1.8c1.8,0.9,1.5,1.5,2.6,2.4
					c0.3,0.3,1.1,0.4,1.4,0.7c0.3,0.3,0.1,0.5,0.5,0.8s0.4,0.1,0.8,0.3c0.5,0.2,1.1,0.7,1.1,0.9c0,0.3-0.6,1.3-0.9,1.5
					c-0.2,0.3-0.5,0.2-1.5-0.7c-1.3-1-0.5-2-3.5-3.7c-0.6-0.3-2,0.2-2,0.4c-0.1,0.3,1.1,0.5,1.5,1.3c0.3,0.4,0.3,1.1,0.5,1.3
					s0.4,0.1,0.7,0.2c0.3,0.3,0.1,0.4,0.3,0.8C8.9,18,10.2,19,12,19c-0.2,1.3,0.1,2.4,0.1,2.4s-0.7,0.2-1.3,0.1
					c-0.5-0.2-1-0.4-1.5-0.6c-0.4-0.2-0.2-0.5-1.1-0.3c-0.7,0.2-1.5,0.4-1.5,0.6c0,0.1,0.1,0.3,0.5,0.7c0.3,0.2,1,0,1.3,0.1
					c0.5,0.3,1.1,1.4,2.2,1.5s1.7-0.1,1.7-0.2c0.1-0.1,0.3,0,0.4,0.3c0.2,0.3,0.1,1.7,0.9,2C14,27.2,12,27,11.6,28
					c-0.3,0.5-0.1,1.1-1.1,1.6c0.1,0.5,0.9,0.9,1.4,0.8c1.4-0.5,2.4-1.5,2.7-2.2s1.4-0.5,1.5,0c0.1,0.3-0.1,0.6,0.2,0.7
					c0.2,0.1,0.3-0.2,0.5-0.1c0.8,0.7,1.2,1,2.9,1.3c-0.5,0.7,0.1,0.8-0.3,2.1c-0.4,0.4-1.1,0.8-1.1,0.9c0.1,0.2,0.3,0.4,0.2,0.9
					c-0.2,0.5-0.5,0.7-0.5,0.9c0.3,0.5,0.7,0.9,1.1,0.5c1.1-0.8,2.1-2.1,2.1-3.1c0.1-2.1,0.5-2.1,0.6-2.1s0.5,0.2,0.9,0.2
					c0.5,0.7,0.5,1.3,0.8,2.1c0.3,1.1,0.5,2.2,0.8,2.5s0.6,0.5,0.9,0.5c1,0.1,1.4-0.6,1.3-0.9c-0.1-0.1-0.9-0.3-0.9-2.1
					c0-1.3-0.6-1.5-0.7-2.1c-0.1-0.3,0.1-0.5,0.2-0.8c0.3-0.1,0.3-0.1,0.6-0.1c0.8,1.5,0.9,2.7,1,3s0.5,0.7,0.8,1.1s0.2,1.1,0.2,1.4
					c0.1,0.2,0.3,0.3,0.4,0.7c0.1,0.3-0.2,0.8-0.2,1.1c0.1,0.7,0.8,0.5,0.5,1.4c0.2,0.7,0.5,0.9,1.1,0.9c0.9,0.1,1.5-0.3,1.4-0.5
					c-0.1-0.1-0.6-0.7-1.3-2.4c-0.6-1.5-0.3-2.1-0.6-3.1c-0.3-0.9-1.1-1.4-1.2-2.1c-0.1-0.8,0.3-1.1-0.4-2.4
					c0.4-0.2,0.8-0.5,0.9-0.9c0.1,0,0.2-0.2,0.3-0.2c-0.1,0.3-0.3,0.6-0.3,0.9c0.2,0.5,0.6,0.4,0.8,0.7c0.3,0.3,0.2,1,0.4,1.3
					c0.3,0.3,1.5,1.9,2.4,2.1c0.2,0.1,0,1.5,0.5,1.7c0.5,0.3,0.9,0.1,1.1,0.3c0.3,0.3,0.4,0.4,0.6,0.6c0.2,0.3,0.6,0.2,0.8,0.1
					c0.3-0.3,0.5-0.5,0.3-1.3c-0.1-0.8-2.5-2.1-2.8-2.9s-0.3-2.8-2.5-3.8c-0.3-0.2-1,0.2-1,0.2c0.5-0.3,1.3-1.1,1.3-1.7
					c1.1-0.3,1.2,0.3,1.9,0.8c0.8,0.4,0.9,0.4,1.8,0.6c0.8,0.2,0.1,0,1.1,0.3c0.9,0.3,1-0.5,0.9-0.9c0.2-0.5,0.2-0.5,0.1-0.7
					c-0.3-0.3-0.1,0.2-0.9-0.3c-0.2-0.2-0.3-0.7-0.5-1c-0.9-1.2-2.4-0.4-2.9-1.1c0-0.9,0.8-1.3,0.6-2.7c0.3-0.1,0.6,0.3,1.1,0.3
					c0.9-0.1,0.8-1.7,1.9-1.5c0.5,0.1,1.1-0.2,1.2-0.5c0.1-0.2-0.9-1.1-1.9-0.9c-0.7,0.1-1.3,1-1.7,1.1s-0.5-0.1-0.5-0.1
					s-0.3-0.9-0.3-1.5c0.1-0.7,0.6-0.5,1.3-0.9c0.3-0.3-0.3-1.1-0.9-1.1c-0.5-0.1-0.5,0.2-0.8,0.1c-0.3-0.1-0.6-0.5-0.6-0.5
					s1.5-1.1,3-0.9c0.9,0.3,2.4,0.3,3.1-0.3c0.8-0.6,1.5-1.9,3-1.1c0.3,0.2,1.1-0.7,1.1-0.9C41,11.8,39.4,11.2,37.4,12z M29.3,22
					c-0.1,0.3,0.1,0.9-0.1,1.1c-0.2,0.3-0.5,0.6-0.7,0.9c0,0.2,0.1,0.3-0.1,0.5c-0.1,0.3-1.5,1.7-2.2,2.4c-0.9,0.8-3.9,1.3-4.7,1.2
					c-1.3-0.2-4-1-4.9-2.1c-0.2-0.2-0.4-1.3-0.9-1.3c-0.3-0.1-0.3-0.2-0.5-0.3c-0.1-0.1-0.9-1.7-1-2.1c-0.1-0.3,0.3-0.5,0.3-0.7
					s-0.7-1.3-0.7-1.9c0-0.3,0.3-0.7,0.4-1c0.3-1.7,0.8-3.3,2.1-4.4c0.4-0.4,1.3-0.7,1.7-1c0.1-0.1,0.2-0.5,0.3-0.5
					c0.6-0.5,2.7-0.8,4.3-0.1c1.5,0.7,1.1-0.1,2.1,0.3c1,0.4,3.4,2.4,4.4,4.4c0.2,0.4,0.2,1.3,0.2,1.6c0.1,0.5,0.3,0.8,0.3,1.3
					C29.7,21,29.3,21.5,29.3,22z"/>
			</g>
		</g>
	</g>
</g>
<g>
	<path class="st3" d="M211.1-67.6c-2.4,0.9-5.2,1.1-6.4,1.1c-3.3,0-6.8-1.1-9.4-3.7c-2.4-2.4-3.7-5.8-3.7-9.4c0-3.9,1.5-7.2,3.8-9.7
		c1.8-1.8,4.9-3.8,9.7-3.8c1.9,0,4.1,0.3,6.1,1.1l0.3,9.7c-1.1-1.1-3-2.5-5.4-2.5c-1.5,0-2.8,0.6-3.7,1.5c-0.8,0.9-1.4,2.3-1.4,3.7
		s0.5,2.7,1.5,3.7c0.7,0.7,1.9,1.5,3.7,1.5c2.6,0,4.4-1.5,5.2-2.4L211.1-67.6z"/>
	<path class="st3" d="M222.8-70.3l-0.7,3.2h-9.7l8.8-25.4h10.2l9.1,25.4h-9.8l-0.8-3.2C229.9-70.3,222.8-70.3,222.8-70.3z
		 M226.6-84.1h-0.3c0,1.1-0.2,1.9-0.4,2.9l-1.2,4.9h3.7l-1.1-4.9C226.8-82.2,226.6-83.1,226.6-84.1z"/>
	<path class="st3" d="M241.9-67.1v-25.4h11.4c2.7,0,5.5,0.3,7.8,2.6c1.4,1.4,2.4,3.2,2.4,6.2c0,2.3-0.7,3.7-1.5,4.5s-2,1.8-3.5,2
		v0.3c0.5,0.3,1.1,0.6,1.4,1.1l5.7,8.6H255l-3.7-7.5c-0.1-0.3-0.2-0.4-0.3-0.8l-0.1,0.1v8.2C250.8-67.1,241.9-67.1,241.9-67.1z
		 M250.8-81.2h1.1c0.5,0,1.4-0.1,1.9-0.6c0.3-0.3,0.6-0.7,0.6-1.5c0-0.6-0.1-1.1-0.5-1.5c-0.3-0.3-0.8-0.7-1.5-0.7h-1.5L250.8-81.2
		L250.8-81.2z"/>
	<path class="st3" d="M267-67.1v-25.4h17.2v6.9h-8v2.3h7.2v6.7h-7.2v2.5h8.2v6.9L267-67.1L267-67.1z"/>
	<path class="st3" d="M286.5-67.1v-25.4h17.2v6.9h-8v2.3h7.2v6.7h-7.2v2.5h8.2v6.9L286.5-67.1L286.5-67.1z"/>
	<path class="st3" d="M305.1-67.1v-25.4h11.4c2.7,0,5.5,0.3,7.8,2.6c1.4,1.4,2.4,3.2,2.4,6.2c0,2.3-0.7,3.7-1.5,4.5
		c-0.7,0.9-2,1.8-3.5,2v0.3c0.5,0.3,1.1,0.6,1.4,1.1l5.7,8.6h-10.6l-3.7-7.5c-0.1-0.3-0.2-0.4-0.3-0.8l-0.1,0.1v8.2
		C314.1-67.1,305.1-67.1,305.1-67.1z M314.1-81.2h1.1c0.5,0,1.4-0.1,1.9-0.6c0.3-0.3,0.6-0.7,0.6-1.5c0-0.6-0.1-1.1-0.5-1.5
		c-0.3-0.3-0.8-0.7-1.5-0.7h-1.5L314.1-81.2L314.1-81.2z"/>
	<path class="st3" d="M347.3-84.3c-1.1-0.7-3.1-1.9-5.2-1.9c-0.5,0-1.2,0.1-1.8,0.4c-0.3,0.3-0.4,0.5-0.4,0.9c0,0.5,0.1,1.1,1.5,1.4
		l2.9,0.6c2.3,0.5,3.7,1.5,4.4,2.2c1.5,1.5,1.9,3.5,1.9,5c0,2.2-0.6,4.2-2.3,6c-1.5,1.5-4.2,3.2-9,3.2c-3.9,0-6.5-1.1-8.7-1.9
		l-0.8-0.3l2.8-7.1l1.1,0.7c0.9,0.7,2.9,1.9,5.2,1.9c1.2,0,1.8-0.3,1.9-0.4c0.4-0.3,0.5-0.7,0.5-1.1c0-0.2,0-0.6-0.3-0.8
		c-0.3-0.3-0.8-0.4-1.8-0.6l-2.3-0.4c-1.5-0.3-3-0.7-4.5-2.2c-1.4-1.4-1.9-2.9-1.9-4.6c0-2.4,0.8-4.4,2.5-6.1
		c1.9-1.9,4.8-3.3,8.8-3.3c2,0,4.6,0.3,7.8,2.2L347.3-84.3z"/>
</g>
<g>
	<g class="st4">
		<rect x="151" y="-169.7" class="st5" width="2.4" height="34.1"/>
	</g>
	<g>
		<path class="st3" d="M177.5-148.5v-13.1h4.8v13.1H177.5z"/>
		<path class="st3" d="M184.9-148.5v-13.1h4.5l3,5c0.5,0.8,0.8,1.3,1.2,2.3h0.1c-0.2-0.8-0.4-2.1-0.4-3.1v-4.2h4.6v13.1h-4.6
			l-3.3-5.2c-0.3-0.5-0.6-1.2-0.9-1.7H189c0.1,0.7,0.3,1.8,0.3,2.4v4.5H184.9z"/>
		<path class="st3" d="M200.6-148.5v-13.1h8.7v3.7h-4v1.3h3.5v3.5h-3.5v4.6H200.6z"/>
		<path class="st3" d="M223.4-150.3c-1.1,1.1-2.9,2.1-5.4,2.1s-4.3-1-5.4-2.1c-1-1-1.8-2.7-1.8-4.8s0.8-3.7,1.8-4.7
			c1.1-1.1,2.9-2.1,5.4-2.1s4.3,1,5.4,2.1c1,1,1.8,2.7,1.8,4.7C225.2-152.9,224.4-151.3,223.4-150.3z M216.2-157
			c-0.5,0.5-0.7,1.3-0.7,2s0.3,1.5,0.7,1.9s1,0.7,1.7,0.7s1.3-0.3,1.7-0.7s0.7-1.1,0.7-1.9s-0.3-1.5-0.7-2c-0.4-0.4-0.9-0.7-1.7-0.7
			C217.1-157.7,216.6-157.3,216.2-157z"/>
		<path class="st3" d="M227.3-148.5v-13.1h5.9c1.4,0,2.8,0.2,4,1.4c0.7,0.7,1.2,1.7,1.2,3.2c0,1.2-0.4,1.9-0.7,2.3
			c-0.4,0.5-1,0.9-1.8,1v0.1c0.3,0.1,0.5,0.3,0.7,0.6l2.9,4.4H234l-1.9-3.8c-0.1-0.1-0.1-0.2-0.2-0.4h-0.1v4.2L227.3-148.5
			L227.3-148.5z M231.9-155.7h0.5c0.3,0,0.7,0,1-0.3c0.2-0.1,0.3-0.4,0.3-0.8c0-0.3-0.1-0.6-0.3-0.8s-0.4-0.4-0.8-0.4h-0.8v2.3
			C231.8-155.7,231.9-155.7,231.9-155.7z"/>
		<path class="st3" d="M240.7-148.5l2.1-13.1h4.9l1.5,5.4c0.2,0.7,0.3,1.3,0.3,1.5h0.1c0-0.6,0.1-1,0.3-1.5l1.6-5.4h4.9l2.1,13.1
			h-4.6l-0.6-5.9c0-0.5-0.1-0.7-0.1-1.3h-0.1c-0.1,0.3-0.2,0.8-0.3,1.1l-1.9,6.1h-2.8l-1.7-5.7c-0.1-0.5-0.2-0.9-0.3-1.4H246
			c0,0.3,0,0.8,0,1l-0.6,6.2h-4.7V-148.5L240.7-148.5z"/>
		<path class="st3" d="M264.6-150.1l-0.4,1.6h-5l4.5-13.1h5.3l4.7,13.1h-5.1l-0.4-1.6H264.6z M266.6-157.2h-0.2c0,0.6-0.1,1-0.2,1.5
			l-0.6,2.5h1.9l-0.6-2.5C266.8-156.2,266.6-156.7,266.6-157.2z"/>
		<path class="st3" d="M275.9-148.5v-9l-2.7,0.1v-4.2h10v4.3l-2.7-0.1v9L275.9-148.5L275.9-148.5z"/>
		<path class="st3" d="M284.8-148.5v-13.1h4.8v13.1H284.8z"/>
		<path class="st3" d="M304.3-150.3c-1.1,1.1-2.9,2.1-5.4,2.1s-4.3-1-5.4-2.1c-1-1-1.8-2.7-1.8-4.8s0.8-3.7,1.8-4.7
			c1.1-1.1,2.9-2.1,5.4-2.1s4.3,1,5.4,2.1c1,1,1.8,2.7,1.8,4.7C306.1-152.9,305.3-151.3,304.3-150.3z M297.1-157
			c-0.5,0.5-0.7,1.3-0.7,2s0.3,1.5,0.7,1.9c0.4,0.4,1,0.7,1.7,0.7s1.3-0.3,1.7-0.7c0.4-0.4,0.7-1.1,0.7-1.9s-0.3-1.5-0.7-2
			c-0.4-0.4-0.9-0.7-1.7-0.7S297.4-157.3,297.1-157z"/>
		<path class="st3" d="M308.1-148.5v-13.1h4.5l3,5c0.5,0.8,0.8,1.3,1.2,2.3h0.1c-0.2-0.8-0.4-2.1-0.4-3.1v-4.2h4.6v13.1h-4.6
			l-3.3-5.2c-0.3-0.5-0.6-1.2-0.9-1.7h-0.1c0.1,0.7,0.3,1.8,0.3,2.4v4.5H308.1z"/>
		<path class="st3" d="M328.5-148.5v-13.1h4.6v4.4h2.9v-4.4h4.6v13.1H336v-4.6h-2.9v4.6H328.5z"/>
		<path class="st3" d="M343.3-161.6h4.7v7.6c0,0.4,0,0.9,0.4,1.3c0.3,0.3,0.6,0.4,0.9,0.4c0.5,0,0.8-0.1,1-0.3
			c0.4-0.4,0.4-1,0.4-1.4v-7.6h4.7v8c0,1-0.2,2.5-1.4,3.7c-1.3,1.4-3.2,1.6-4.7,1.6c-1.2,0-3.4-0.1-4.9-1.7c-1-1.1-1.2-2.3-1.2-3.3
			v-8.3H343.3z"/>
		<path class="st3" d="M357.9-161.6h5.7c1.1,0,2.9,0.1,3.9,1.1c0.3,0.3,1,1.1,1,2.6c0,0.5-0.1,1.2-0.5,1.8c-0.3,0.3-0.7,0.6-1.1,0.8
			v0.1c0.5,0.1,1,0.4,1.4,0.8c0.6,0.6,1,1.3,1,2.3s-0.3,1.9-1.2,2.7c-1.1,0.9-2.4,1-3.4,1H358L357.9-161.6L357.9-161.6z
			 M362.3-156.6h0.7c0.3,0,0.7-0.1,0.9-0.3c0.1-0.1,0.3-0.3,0.3-0.7s-0.2-0.6-0.3-0.7c-0.3-0.2-0.7-0.2-0.9-0.2h-0.7V-156.6z
			 M362.3-151.6h1c0.3,0,0.7,0,1-0.2c0.2-0.2,0.5-0.5,0.5-0.9c0-0.3-0.1-0.6-0.4-0.8c-0.3-0.3-0.8-0.3-1-0.3h-1v2.2H362.3z"/>
	</g>
</g>
<text transform="matrix(1 0 0 1 125.5002 -46.6245)" class="st3" style="font-family:'FuturaPT-ExtraBold'; font-size:19.6543px;">Information Hub</text>
<g>
	<rect x="100.1" y="13.3" class="st5" width="1.7" height="28"/>
</g>
<g>
	<g>
		<path class="st3" d="M118.2,34.1h-2.7V21.3h2.7V34.1z"/>
	</g>
	<g>
		<path class="st3" d="M131,34.1h-2.7l-5.1-8.3v8.3h-2.7V21.3h2.7l5.1,8.3v-8.3h2.7V34.1L131,34.1z"/>
	</g>
	<g>
		<path class="st3" d="M140.9,28.9h-5.1v5.2h-2.7V21.3h8.3v2.1h-5.7v3.3h5.1V28.9z"/>
	</g>
	<g>
		<path class="st3" d="M153.5,28c0,1.2-0.2,2.3-0.7,3.3c-0.4,1-1.1,1.7-1.9,2.2c-0.9,0.6-1.8,0.8-2.9,0.8c-1,0-2-0.2-2.8-0.8
			c-0.9-0.6-1.4-1.2-1.9-2.2c-0.6-0.9-0.7-2-0.7-3.2v-0.6c0-1.2,0.2-2.3,0.7-3.3c0.4-0.9,1.1-1.7,1.9-2.2c0.8-0.6,1.8-0.8,2.8-0.8
			c1.1,0,2,0.2,2.8,0.8c0.9,0.6,1.4,1.2,1.9,2.2c0.4,0.9,0.7,2,0.7,3.3V28H153.5z M150.9,27.4c0-1.3-0.2-2.3-0.7-3
			c-0.6-0.7-1.2-1-2-1c-0.8,0-1.6,0.3-2,1c-0.4,0.7-0.8,1.7-0.8,3V28c0,1.2,0.2,2.3,0.7,3c0.6,0.7,1.2,1.1,2,1.1c0.8,0,1.6-0.3,2-1
			c0.6-0.7,0.7-1.7,0.7-3L150.9,27.4L150.9,27.4z"/>
	</g>
	<g>
		<path class="st3" d="M160.2,29.4h-2.1v4.7h-2.7V21.3h4.8c1.6,0,2.7,0.3,3.4,1c0.9,0.7,1.2,1.6,1.2,2.9c0,0.9-0.2,1.6-0.6,2.2
			c-0.3,0.6-0.9,1-1.7,1.3l2.8,5.2v0.1h-2.8L160.2,29.4z M158.1,27.3h2.1c0.7,0,1.2-0.2,1.6-0.6c0.3-0.3,0.6-0.8,0.6-1.3
			s-0.2-1.1-0.6-1.4c-0.3-0.3-0.9-0.6-1.6-0.6h-2.1V27.3L158.1,27.3z"/>
	</g>
	<g>
		<path class="st3" d="M170.3,21.3l3.3,9.2l3.2-9.2h3.4v12.8h-2.7v-3.4l0.2-6l-3.4,9.4h-1.8l-3.4-9.4l0.2,6v3.4h-2.7V21.3H170.3z"/>
	</g>
	<g>
		<path class="st3" d="M189.8,31.4h-4.5l-0.9,2.7h-2.8l4.8-12.8h2.4l4.8,12.8h-2.8L189.8,31.4z M185.9,29.3h3.2l-1.6-4.8L185.9,29.3
			z"/>
	</g>
	<g>
		<path class="st3" d="M203.2,23.5h-3.9v10.5h-2.7V23.5h-3.8v-2.1h10.4L203.2,23.5L203.2,23.5z"/>
	</g>
	<g>
		<path class="st3" d="M207.4,34.1h-2.7V21.3h2.7V34.1z"/>
	</g>
	<g>
		<path class="st3" d="M220.4,28c0,1.2-0.2,2.3-0.7,3.3c-0.4,1-1.1,1.7-1.9,2.2c-0.9,0.6-1.8,0.8-2.9,0.8c-1,0-2-0.2-2.8-0.8
			c-0.9-0.6-1.4-1.2-1.9-2.2c-0.4-0.9-0.7-2-0.7-3.2v-0.6c0-1.2,0.2-2.3,0.7-3.3c0.4-0.9,1.1-1.7,1.9-2.2c0.9-0.6,1.8-0.8,2.8-0.8
			c1.1,0,2,0.2,2.8,0.8c0.9,0.6,1.4,1.2,1.9,2.2c0.4,0.9,0.7,2,0.7,3.3L220.4,28L220.4,28z M217.6,27.4c0-1.3-0.2-2.3-0.7-3
			c-0.6-0.7-1.2-1-2-1c-0.8,0-1.6,0.3-2,1c-0.6,0.7-0.8,1.7-0.8,3V28c0,1.2,0.2,2.3,0.7,3c0.6,0.7,1.2,1.1,2,1.1c0.9,0,1.6-0.3,2-1
			c0.6-0.7,0.7-1.7,0.7-3L217.6,27.4L217.6,27.4z"/>
	</g>
	<g>
		<path class="st3" d="M232.6,34.1h-2.7l-5.1-8.3v8.3h-2.7V21.3h2.7l5.1,8.3v-8.3h2.7V34.1L232.6,34.1z"/>
	</g>
	<g>
		<path class="st3" d="M249.7,34.1H247v-5.4h-5.1v5.4h-2.7V21.3h2.7v5.1h5.1v-5.1h2.7V34.1L249.7,34.1z"/>
	</g>
	<g>
		<path class="st3" d="M261.6,21.3v8.3c0,1.3-0.4,2.6-1.2,3.3c-0.9,0.9-2,1.2-3.5,1.2c-1.6,0-2.7-0.4-3.5-1.2s-1.3-1.9-1.3-3.2v-8.4
			h2.7v8.3c0,0.9,0.2,1.4,0.6,1.9s0.9,0.6,1.7,0.6c1.4,0,2.2-0.8,2.3-2.3v-8.4C259,21.3,261.6,21.3,261.6,21.3z"/>
	</g>
	<g>
		<path class="st3" d="M263.8,34.1V21.3h4.4c1.6,0,2.7,0.3,3.5,0.9c0.8,0.6,1.2,1.4,1.2,2.7c0,0.6-0.2,1.2-0.6,1.7
			c-0.3,0.6-0.8,0.9-1.3,1c0.7,0.2,1.2,0.6,1.6,1c0.3,0.6,0.6,1.1,0.6,1.9c0,1.2-0.4,2.1-1.2,2.8c-0.8,0.6-1.9,0.9-3.3,0.9H263.8
			L263.8,34.1z M266.3,26.8h1.9c1.3,0,1.9-0.6,1.9-1.6c0-0.6-0.2-1-0.6-1.2c-0.3-0.2-0.9-0.4-1.6-0.4h-1.9L266.3,26.8L266.3,26.8z
			 M266.3,28.5V32h2.3c0.6,0,1.1-0.2,1.4-0.4c0.3-0.2,0.6-0.7,0.6-1.2c0-1.2-0.6-1.8-1.8-1.8H266.3L266.3,28.5z"/>
	</g>
</g>
</svg>
